<svg width="20" height="20" viewBox="0 0 20 20" fill="none" xmlns="http://www.w3.org/2000/svg">
<g id="E-commerce" clip-path="url(#clip0_50_1893)">
<path id="Vector" d="M5.27685 6.66669H14.726C14.9663 6.66666 15.2038 6.7186 15.4221 6.81894C15.6405 6.91928 15.8346 7.06565 15.9911 7.24802C16.1476 7.43039 16.2627 7.64445 16.3288 7.87551C16.3948 8.10657 16.41 8.34917 16.3735 8.58669L15.3277 15.38C15.2369 15.9704 14.9377 16.5087 14.4843 16.8976C14.031 17.2865 13.4533 17.5002 12.856 17.5H7.14602C6.54885 17.5 5.97142 17.2862 5.51821 16.8973C5.065 16.5085 4.76595 15.9702 4.67518 15.38L3.62935 8.58669C3.59282 8.34917 3.60809 8.10657 3.67411 7.87551C3.74012 7.64445 3.85532 7.43039 4.01181 7.24802C4.16829 7.06565 4.36237 6.91928 4.58072 6.81894C4.79907 6.7186 5.03654 6.66666 5.27685 6.66669Z" stroke="white" stroke-width="1.25" stroke-linecap="round" stroke-linejoin="round"/>
<path id="Vector_2" d="M7.5 9.16667V5C7.5 4.33696 7.76339 3.70107 8.23223 3.23223C8.70107 2.76339 9.33696 2.5 10 2.5C10.663 2.5 11.2989 2.76339 11.7678 3.23223C12.2366 3.70107 12.5 4.33696 12.5 5V9.16667" stroke="white" stroke-width="1.25" stroke-linecap="round" stroke-linejoin="round"/>
</g>
<defs>
<clipPath id="clip0_50_1893">
<rect width="20" height="20" fill="white"/>
</clipPath>
</defs>
</svg>
