<svg width="21" height="20" viewBox="0 0 21 20" fill="none" xmlns="http://www.w3.org/2000/svg">
<g clip-path="url(#clip0_719_1898)">
<path d="M3.2998 5.83333C3.2998 5.39131 3.4754 4.96738 3.78796 4.65482C4.10052 4.34226 4.52444 4.16667 4.96647 4.16667H16.6331C17.0752 4.16667 17.4991 4.34226 17.8116 4.65482C18.1242 4.96738 18.2998 5.39131 18.2998 5.83333V14.1667C18.2998 14.6087 18.1242 15.0326 17.8116 15.3452C17.4991 15.6577 17.0752 15.8333 16.6331 15.8333H4.96647C4.52444 15.8333 4.10052 15.6577 3.78796 15.3452C3.4754 15.0326 3.2998 14.6087 3.2998 14.1667V5.83333Z" stroke="#A39BD6" stroke-width="1.25" stroke-linecap="round" stroke-linejoin="round"/>
<path d="M3.2998 5.83333L10.7998 10.8333L18.2998 5.83333" stroke="#A39BD6" stroke-width="1.25" stroke-linecap="round" stroke-linejoin="round"/>
</g>
<defs>
<clipPath id="clip0_719_1898">
<rect width="20" height="20" fill="white" transform="translate(0.799805)"/>
</clipPath>
</defs>
</svg>
