<svg width="21" height="20" viewBox="0 0 21 20" fill="none" xmlns="http://www.w3.org/2000/svg">
<g clip-path="url(#clip0_1060_14557)">
<path d="M4.96631 10.8333C4.96631 10.3913 5.1419 9.96738 5.45446 9.65482C5.76702 9.34226 6.19095 9.16667 6.63298 9.16667H14.9663C15.4083 9.16667 15.8323 9.34226 16.1448 9.65482C16.4574 9.96738 16.633 10.3913 16.633 10.8333V15.8333C16.633 16.2754 16.4574 16.6993 16.1448 17.0118C15.8323 17.3244 15.4083 17.5 14.9663 17.5H6.63298C6.19095 17.5 5.76702 17.3244 5.45446 17.0118C5.1419 16.6993 4.96631 16.2754 4.96631 15.8333V10.8333Z" stroke="#A39BD6" stroke-width="1.25" stroke-linecap="round" stroke-linejoin="round"/>
<path d="M9.96631 13.3333C9.96631 13.5543 10.0541 13.7663 10.2104 13.9226C10.3667 14.0789 10.5786 14.1667 10.7996 14.1667C11.0207 14.1667 11.2326 14.0789 11.3889 13.9226C11.5452 13.7663 11.633 13.5543 11.633 13.3333C11.633 13.1123 11.5452 12.9004 11.3889 12.7441C11.2326 12.5878 11.0207 12.5 10.7996 12.5C10.5786 12.5 10.3667 12.5878 10.2104 12.7441C10.0541 12.9004 9.96631 13.1123 9.96631 13.3333Z" stroke="#A39BD6" stroke-width="1.25" stroke-linecap="round" stroke-linejoin="round"/>
<path d="M7.46631 9.16667V5.83333C7.46631 4.94928 7.8175 4.10143 8.44262 3.47631C9.06774 2.85119 9.91559 2.5 10.7996 2.5C11.6837 2.5 12.5315 2.85119 13.1567 3.47631C13.7818 4.10143 14.133 4.94928 14.133 5.83333V9.16667" stroke="#A39BD6" stroke-width="1.25" stroke-linecap="round" stroke-linejoin="round"/>
</g>
<defs>
<clipPath id="clip0_1060_14557">
<rect width="20" height="20" fill="white" transform="translate(0.799805)"/>
</clipPath>
</defs>
</svg>
