<svg width="21" height="20" viewBox="0 0 21 20" fill="none" xmlns="http://www.w3.org/2000/svg">
<g clip-path="url(#clip0_722_1003)">
<path d="M3.2998 10C3.2998 10.9849 3.4938 11.9602 3.87071 12.8701C4.24762 13.7801 4.80006 14.6069 5.4965 15.3033C6.19294 15.9997 7.01974 16.5522 7.92968 16.9291C8.83962 17.306 9.81489 17.5 10.7998 17.5C11.7847 17.5 12.76 17.306 13.6699 16.9291C14.5799 16.5522 15.4067 15.9997 16.1031 15.3033C16.7995 14.6069 17.352 13.7801 17.7289 12.8701C18.1058 11.9602 18.2998 10.9849 18.2998 10C18.2998 9.01509 18.1058 8.03982 17.7289 7.12987C17.352 6.21993 16.7995 5.39314 16.1031 4.6967C15.4067 4.00026 14.5799 3.44781 13.6699 3.0709C12.76 2.69399 11.7847 2.5 10.7998 2.5C9.81489 2.5 8.83962 2.69399 7.92968 3.0709C7.01974 3.44781 6.19294 4.00026 5.4965 4.6967C4.80006 5.39314 4.24762 6.21993 3.87071 7.12987C3.4938 8.03982 3.2998 9.01509 3.2998 10Z" stroke="#A39BD6" stroke-width="1.25" stroke-linecap="round" stroke-linejoin="round"/>
<path d="M10.7998 10L13.2998 11.6667" stroke="#A39BD6" stroke-width="1.25" stroke-linecap="round" stroke-linejoin="round"/>
<path d="M10.7998 5.83333V9.99999" stroke="#A39BD6" stroke-width="1.25" stroke-linecap="round" stroke-linejoin="round"/>
</g>
<defs>
<clipPath id="clip0_722_1003">
<rect width="20" height="20" fill="white" transform="translate(0.799805)"/>
</clipPath>
</defs>
</svg>
