<svg width="21" height="20" viewBox="0 0 21 20" fill="none" xmlns="http://www.w3.org/2000/svg">
<g clip-path="url(#clip0_722_10875)">
<path d="M3.2998 6.66667C3.2998 6.00363 3.5632 5.36775 4.03204 4.8989C4.50088 4.43006 5.13676 4.16667 5.7998 4.16667H15.7998C16.4628 4.16667 17.0987 4.43006 17.5676 4.8989C18.0364 5.36775 18.2998 6.00363 18.2998 6.66667V13.3333C18.2998 13.9964 18.0364 14.6323 17.5676 15.1011C17.0987 15.5699 16.4628 15.8333 15.7998 15.8333H5.7998C5.13676 15.8333 4.50088 15.5699 4.03204 15.1011C3.5632 14.6323 3.2998 13.9964 3.2998 13.3333V6.66667Z" stroke="#A39BD6" stroke-width="1.25" stroke-linecap="round" stroke-linejoin="round"/>
<path d="M6.6333 13.3333L9.1333 10.8333L11.6333 13.3333" stroke="#A39BD6" stroke-width="1.25" stroke-linecap="round" stroke-linejoin="round"/>
<path d="M7.46647 10.8335C6.80897 10.8335 5.7998 10.2735 5.7998 9.58354C5.7998 8.89354 6.3923 8.33354 7.0498 8.33354C7.9898 8.31687 8.78064 9.30854 9.13314 10.8335C9.48564 9.30854 10.2765 8.31687 11.2165 8.33354C11.874 8.33354 12.4665 8.89354 12.4665 9.58354C12.4665 10.2735 11.4573 10.8335 10.7998 10.8335H7.46647Z" stroke="#A39BD6" stroke-width="1.25" stroke-linecap="round" stroke-linejoin="round"/>
</g>
<defs>
<clipPath id="clip0_722_10875">
<rect width="20" height="20" fill="white" transform="translate(0.799805)"/>
</clipPath>
</defs>
</svg>
