<svg width="21" height="20" viewBox="0 0 21 20" fill="none" xmlns="http://www.w3.org/2000/svg">
<g clip-path="url(#clip0_722_11343)">
<path d="M8.2998 12.5L13.2998 7.5" stroke="#A39BD6" stroke-width="1.25" stroke-linecap="round" stroke-linejoin="round"/>
<path d="M8.71647 8.33333C8.94659 8.33333 9.13314 8.14679 9.13314 7.91667C9.13314 7.68655 8.94659 7.5 8.71647 7.5C8.48635 7.5 8.2998 7.68655 8.2998 7.91667C8.2998 8.14679 8.48635 8.33333 8.71647 8.33333Z" fill="#A39BD6" stroke="#A39BD6" stroke-width="1.25" stroke-linecap="round" stroke-linejoin="round"/>
<path d="M12.883 12.5C13.1131 12.5 13.2996 12.3134 13.2996 12.0833C13.2996 11.8532 13.1131 11.6667 12.883 11.6667C12.6529 11.6667 12.4663 11.8532 12.4663 12.0833C12.4663 12.3134 12.6529 12.5 12.883 12.5Z" fill="#A39BD6" stroke="#A39BD6" stroke-width="1.25" stroke-linecap="round" stroke-linejoin="round"/>
<path d="M4.96686 6.00038C4.96686 5.51415 5.16001 5.04784 5.50383 4.70402C5.84764 4.36021 6.31396 4.16705 6.80019 4.16705H7.63352C8.1176 4.16677 8.58193 3.97505 8.92519 3.63372L9.50852 3.05038C9.67889 2.87905 9.88146 2.74309 10.1046 2.65031C10.3277 2.55753 10.5669 2.50977 10.8085 2.50977C11.0501 2.50977 11.2894 2.55753 11.5125 2.65031C11.7356 2.74309 11.9381 2.87905 12.1085 3.05038L12.6919 3.63372C13.0351 3.97505 13.4994 4.16677 13.9835 4.16705H14.8169C15.3031 4.16705 15.7694 4.36021 16.1132 4.70402C16.457 5.04784 16.6502 5.51415 16.6502 6.00038V6.83372C16.6505 7.3178 16.8422 7.78213 17.1835 8.12538L17.7669 8.70872C17.9382 8.87909 18.0742 9.08165 18.1669 9.30475C18.2597 9.52785 18.3075 9.76709 18.3075 10.0087C18.3075 10.2503 18.2597 10.4896 18.1669 10.7127C18.0742 10.9358 17.9382 11.1383 17.7669 11.3087L17.1835 11.8921C16.8422 12.2353 16.6505 12.6996 16.6502 13.1837V14.0171C16.6502 14.5033 16.457 14.9696 16.1132 15.3134C15.7694 15.6572 15.3031 15.8504 14.8169 15.8504H13.9835C13.4994 15.8507 13.0351 16.0424 12.6919 16.3837L12.1085 16.9671C11.9381 17.1384 11.7356 17.2743 11.5125 17.3671C11.2894 17.4599 11.0501 17.5077 10.8085 17.5077C10.5669 17.5077 10.3277 17.4599 10.1046 17.3671C9.88146 17.2743 9.67889 17.1384 9.50852 16.9671L8.92519 16.3837C8.58193 16.0424 8.1176 15.8507 7.63352 15.8504H6.80019C6.31396 15.8504 5.84764 15.6572 5.50383 15.3134C5.16001 14.9696 4.96686 14.5033 4.96686 14.0171V13.1837C4.96658 12.6996 4.77486 12.2353 4.43352 11.8921L3.85019 11.3087C3.67886 11.1383 3.54289 10.9358 3.45011 10.7127C3.35733 10.4896 3.30957 10.2503 3.30957 10.0087C3.30957 9.76709 3.35733 9.52785 3.45011 9.30475C3.54289 9.08165 3.67886 8.87909 3.85019 8.70872L4.43352 8.12538C4.77486 7.78213 4.96658 7.3178 4.96686 6.83372V6.00038Z" stroke="#A39BD6" stroke-width="1.25" stroke-linecap="round" stroke-linejoin="round"/>
</g>
<defs>
<clipPath id="clip0_722_11343">
<rect width="20" height="20" fill="white" transform="translate(0.799805)"/>
</clipPath>
</defs>
</svg>
