<svg width="21" height="20" viewBox="0 0 21 20" fill="none" xmlns="http://www.w3.org/2000/svg">
<g clip-path="url(#clip0_722_10888)">
<path d="M9.1333 10.8333C9.1333 11.2754 9.3089 11.6993 9.62146 12.0118C9.93402 12.3244 10.3579 12.5 10.8 12.5C11.242 12.5 11.6659 12.3244 11.9785 12.0118C12.291 11.6993 12.4666 11.2754 12.4666 10.8333C12.4666 10.3913 12.291 9.96737 11.9785 9.65481C11.6659 9.34225 11.242 9.16666 10.8 9.16666C10.3579 9.16666 9.93402 9.34225 9.62146 9.65481C9.3089 9.96737 9.1333 10.3913 9.1333 10.8333Z" stroke="#A39BD6" stroke-width="1.25" stroke-linecap="round" stroke-linejoin="round"/>
<path d="M7.46631 17.5V16.6667C7.46631 16.2246 7.6419 15.8007 7.95446 15.4882C8.26702 15.1756 8.69095 15 9.13298 15H12.4663C12.9083 15 13.3323 15.1756 13.6448 15.4882C13.9574 15.8007 14.133 16.2246 14.133 16.6667V17.5" stroke="#A39BD6" stroke-width="1.25" stroke-linecap="round" stroke-linejoin="round"/>
<path d="M13.2998 4.16667C13.2998 4.60869 13.4754 5.03262 13.788 5.34518C14.1005 5.65774 14.5244 5.83333 14.9665 5.83333C15.4085 5.83333 15.8324 5.65774 16.145 5.34518C16.4575 5.03262 16.6331 4.60869 16.6331 4.16667C16.6331 3.72464 16.4575 3.30072 16.145 2.98816C15.8324 2.67559 15.4085 2.5 14.9665 2.5C14.5244 2.5 14.1005 2.67559 13.788 2.98816C13.4754 3.30072 13.2998 3.72464 13.2998 4.16667Z" stroke="#A39BD6" stroke-width="1.25" stroke-linecap="round" stroke-linejoin="round"/>
<path d="M14.9663 8.33334H16.633C17.075 8.33334 17.4989 8.50894 17.8115 8.8215C18.124 9.13406 18.2996 9.55798 18.2996 10V10.8333" stroke="#A39BD6" stroke-width="1.25" stroke-linecap="round" stroke-linejoin="round"/>
<path d="M4.96631 4.16667C4.96631 4.60869 5.1419 5.03262 5.45446 5.34518C5.76702 5.65774 6.19095 5.83333 6.63298 5.83333C7.075 5.83333 7.49893 5.65774 7.81149 5.34518C8.12405 5.03262 8.29964 4.60869 8.29964 4.16667C8.29964 3.72464 8.12405 3.30072 7.81149 2.98816C7.49893 2.67559 7.075 2.5 6.63298 2.5C6.19095 2.5 5.76702 2.67559 5.45446 2.98816C5.1419 3.30072 4.96631 3.72464 4.96631 4.16667Z" stroke="#A39BD6" stroke-width="1.25" stroke-linecap="round" stroke-linejoin="round"/>
<path d="M3.2998 10.8333V10C3.2998 9.55798 3.4754 9.13406 3.78796 8.8215C4.10052 8.50894 4.52444 8.33334 4.96647 8.33334H6.63314" stroke="#A39BD6" stroke-width="1.25" stroke-linecap="round" stroke-linejoin="round"/>
</g>
<defs>
<clipPath id="clip0_722_10888">
<rect width="20" height="20" fill="white" transform="translate(0.799805)"/>
</clipPath>
</defs>
</svg>
