<svg width="21" height="20" viewBox="0 0 21 20" fill="none" xmlns="http://www.w3.org/2000/svg">
<g clip-path="url(#clip0_719_1863)">
<path d="M10.3833 17.5H5.79997C5.35794 17.5 4.93402 17.3244 4.62146 17.0118C4.3089 16.6993 4.1333 16.2754 4.1333 15.8333V5.83333C4.1333 5.3913 4.3089 4.96738 4.62146 4.65482C4.93402 4.34226 5.35794 4.16666 5.79997 4.16666H15.8C16.242 4.16666 16.6659 4.34226 16.9785 4.65482C17.291 4.96738 17.4666 5.3913 17.4666 5.83333V10.8333" stroke="#A39BD6" stroke-width="1.25" stroke-linecap="round" stroke-linejoin="round"/>
<path d="M14.1333 2.5V5.83333" stroke="#A39BD6" stroke-width="1.25" stroke-linecap="round" stroke-linejoin="round"/>
<path d="M7.4668 2.5V5.83333" stroke="#A39BD6" stroke-width="1.25" stroke-linecap="round" stroke-linejoin="round"/>
<path d="M4.1333 9.16666H17.4666" stroke="#A39BD6" stroke-width="1.25" stroke-linecap="round" stroke-linejoin="round"/>
<path d="M13.2998 15.8333L14.9665 17.5L18.2998 14.1667" stroke="#A39BD6" stroke-width="1.25" stroke-linecap="round" stroke-linejoin="round"/>
</g>
<defs>
<clipPath id="clip0_719_1863">
<rect width="20" height="20" fill="white" transform="translate(0.799805)"/>
</clipPath>
</defs>
</svg>
