<svg width="20" height="20" viewBox="0 0 20 20" fill="none" xmlns="http://www.w3.org/2000/svg">
<g clip-path="url(#clip0_1279_4250)">
<path d="M10.0759 4.00875C9.15157 3.08404 8.51887 1.46925 8.20489 0C7.89041 1.46955 7.25839 3.08468 6.33367 4.00939C5.4093 4.93346 3.79402 5.56616 2.32507 5.88079C3.79462 6.19478 5.4096 6.8271 6.33397 7.75185C7.25835 8.67623 7.89105 10.2914 8.20552 11.7606C8.51951 10.291 9.15202 8.67593 10.0762 7.75121C11.0006 6.82684 12.6159 6.19444 14.0848 5.87981C12.6156 5.56582 11.0007 4.93316 10.0759 4.00875Z" fill="white"/>
<path d="M16.0803 11.4127C15.5285 10.8607 15.1499 9.89547 14.9623 9.01782C14.7744 9.89547 14.3971 10.8606 13.8447 11.413C13.2924 11.9648 12.3273 12.3431 11.4498 12.531C12.3276 12.7188 13.2924 13.0965 13.8447 13.6489C14.3971 14.201 14.7751 15.1661 14.963 16.0438C15.1505 15.1658 15.5285 14.201 16.0806 13.6486C16.6326 13.0965 17.5978 12.7185 18.4752 12.5303C17.5978 12.3428 16.6327 11.9648 16.0803 11.4127Z" fill="white"/>
<path d="M6.28854 13.3013C6.13078 14.0381 5.81398 14.8486 5.35033 15.3122C4.88676 15.7755 4.07653 16.093 3.33984 16.2508C4.07653 16.4089 4.88676 16.7254 5.35033 17.1893C5.81398 17.6528 6.13142 18.4628 6.28918 19.1999C6.44679 18.4628 6.76374 17.6529 7.22754 17.189C7.69082 16.7254 8.50119 16.4082 9.23773 16.2502C8.50123 16.0927 7.69082 15.7756 7.22724 15.3119C6.76374 14.8487 6.44616 14.0381 6.28854 13.3013Z" fill="white"/>
</g>
<defs>
<clipPath id="clip0_1279_4250">
<rect width="19.2" height="19.2" fill="white" transform="translate(0.800049)"/>
</clipPath>
</defs>
</svg>
