<svg version="1.1" id="Layer_1" xmlns="http://www.w3.org/2000/svg" xmlns:xlink="http://www.w3.org/1999/xlink" x="0px" y="0px"
	 width="100%" viewBox="0 0 120 120" enable-background="new 0 0 120 120" xml:space="preserve">
<path fill="#000000" opacity="1.000000" stroke="none" 
	d="
M73.000000,121.000000 
	C48.666668,121.000000 24.833334,121.000000 1.000000,121.000000 
	C1.000000,81.000000 1.000000,41.000000 1.000000,1.000000 
	C41.000000,1.000000 81.000000,1.000000 121.000000,1.000000 
	C121.000000,41.000000 121.000000,81.000000 121.000000,121.000000 
	C105.166664,121.000000 89.333336,121.000000 73.000000,121.000000 
M119.004227,43.169922 
	C119.007339,41.351761 119.023758,39.533504 119.011086,37.715454 
	C118.972878,32.233723 117.419556,30.464380 111.809662,30.062876 
	C108.853096,29.851273 105.864685,30.084736 101.972763,30.008242 
	C74.350143,30.045254 46.727516,30.082266 18.177494,30.035416 
	C13.611292,30.284441 9.045090,30.533468 3.880830,30.815109 
	C3.599601,35.306820 3.356016,39.197281 3.007910,44.008816 
	C3.007910,59.927971 3.007910,75.847122 3.007910,91.848656 
	C12.349544,91.848656 21.146334,91.848656 30.875603,91.988983 
	C36.271824,91.942673 41.668045,91.896370 47.984230,91.989433 
	C56.970592,91.942490 65.956955,91.895546 75.875618,91.988953 
	C81.271843,91.942657 86.668076,91.896370 92.984268,91.989433 
	C101.577843,91.989433 110.171417,91.989433 118.889000,91.989433 
	C118.889000,75.664566 118.889000,59.875751 119.004227,43.169922 
z"/>
<path fill="#FFFFFF" opacity="1.000000" stroke="none" 
	d="
M19.104895,30.119278 
	C46.727516,30.082266 74.350143,30.045254 102.280106,30.392855 
	C94.282448,32.920994 87.305870,37.149536 81.641289,44.053539 
	C79.508255,46.436901 77.685829,48.691570 75.566750,51.119133 
	C72.895142,55.853405 70.520187,60.414787 67.963989,65.306015 
	C66.572701,69.748726 65.362640,73.861595 64.089577,78.371307 
	C64.999878,81.209229 65.973175,83.650299 67.102600,86.392624 
	C69.820244,88.412117 72.381775,90.130363 74.943314,91.848602 
	C65.956955,91.895546 56.970592,91.942490 47.719032,91.645172 
	C49.662483,89.883072 51.871136,88.465240 54.437271,86.986374 
	C57.947918,84.265442 58.366959,80.763992 57.880211,76.592819 
	C56.651276,72.799660 55.399094,69.390259 54.079720,65.606979 
	C52.052071,61.481018 50.091614,57.728951 48.057304,53.624977 
	C44.342888,49.149620 40.702328,45.026165 36.910416,40.599998 
	C30.874334,36.904613 24.989614,33.511944 19.104895,30.119278 
z"/>
<path fill="#FFFFFF" opacity="1.000000" stroke="none" 
	d="
M29.943123,91.848656 
	C21.146334,91.848656 12.349544,91.848656 3.007910,91.848656 
	C3.007910,75.847122 3.007910,59.927971 3.254295,43.506706 
	C3.500680,43.004601 3.895590,43.047836 3.938671,43.406651 
	C5.217661,45.799995 6.453572,47.834526 7.482210,49.527847 
	C7.026374,51.779278 6.602142,53.874611 6.114965,56.339684 
	C7.664832,60.463924 9.277641,64.218430 10.573688,68.211487 
	C9.652995,75.530640 11.075883,78.209251 17.102306,81.374069 
	C18.457701,83.123520 19.677256,84.579773 21.058411,86.342957 
	C24.127716,88.382812 27.035419,90.115738 29.943123,91.848656 
z"/>
<path fill="#FFFFFF" opacity="1.000000" stroke="none" 
	d="
M118.889000,44.086941 
	C118.889000,59.875751 118.889000,75.664566 118.889000,91.989433 
	C110.171417,91.989433 101.577843,91.989433 92.727737,91.641136 
	C94.995895,89.889412 97.520584,88.485985 100.391045,87.015259 
	C103.844429,83.673569 106.952049,80.399178 110.358299,76.894852 
	C111.042793,74.429695 111.428650,72.194481 111.864151,69.590820 
	C112.324272,67.005005 112.534828,64.724983 113.204102,62.588684 
	C113.816330,60.634438 114.924515,58.835567 115.870872,56.555634 
	C115.005287,51.819099 116.095016,47.854664 118.289719,44.027733 
	C118.491402,44.003838 118.889000,44.086941 118.889000,44.086941 
z"/>
<path fill="#645E8B" opacity="1.000000" stroke="none" 
	d="
M118.946609,43.628433 
	C118.889000,44.086941 118.491402,44.003838 117.932663,43.868408 
	C115.307770,43.481491 113.241608,43.230000 111.273804,42.591545 
	C111.579842,40.556507 111.787521,38.908424 112.002296,37.204094 
	C102.242920,36.028400 95.557823,40.880573 88.777023,45.800716 
	C86.340126,44.974026 84.146011,44.449436 81.951897,43.924847 
	C87.305870,37.149536 94.282448,32.920994 102.739044,30.447355 
	C105.864685,30.084736 108.853096,29.851273 111.809662,30.062876 
	C117.419556,30.464380 118.972878,32.233723 119.011086,37.715454 
	C119.023758,39.533504 119.007339,41.351761 118.946609,43.628433 
z"/>
<path fill="#645E8B" opacity="1.000000" stroke="none" 
	d="
M3.895590,43.047836 
	C3.895590,43.047836 3.500680,43.004601 3.306556,43.046169 
	C3.356016,39.197281 3.599601,35.306820 3.880830,30.815109 
	C9.045090,30.533468 13.611292,30.284441 18.641193,30.077347 
	C24.989614,33.511944 30.874334,36.904613 36.664093,40.892494 
	C34.343025,42.007336 32.116917,42.526958 29.576275,42.889503 
	C23.265482,39.720264 17.597246,35.497631 10.125020,37.434784 
	C10.125020,39.038666 10.125020,40.506210 9.756893,42.121506 
	C7.557708,42.528778 5.726649,42.788307 3.895590,43.047836 
z"/>
<path fill="#A9A4DC" opacity="1.000000" stroke="none" 
	d="
M100.045273,87.082558 
	C97.520584,88.485985 94.995895,89.889412 92.267754,91.571457 
	C86.668076,91.896370 81.271843,91.942657 75.409470,91.918777 
	C72.381775,90.130363 69.820244,88.412117 67.349648,86.099609 
	C69.662964,84.992104 71.885345,84.478867 74.516281,84.015678 
	C80.954811,84.093773 86.984795,84.121819 93.100929,84.512375 
	C95.473145,85.610771 97.759209,86.346664 100.045273,87.082558 
z"/>
<path fill="#A9A4DC" opacity="1.000000" stroke="none" 
	d="
M30.409363,91.918823 
	C27.035419,90.115738 24.127716,88.382812 21.521154,86.331070 
	C24.316483,85.456116 26.810667,84.899994 29.742828,84.441116 
	C35.443676,84.660538 40.706551,84.782707 46.218491,85.201538 
	C49.004967,86.014610 51.542381,86.531013 54.079788,87.047409 
	C51.871136,88.465240 49.662483,89.883072 47.259048,91.575485 
	C41.668045,91.896370 36.271824,91.942673 30.409363,91.918823 
z"/>
<path fill="#756F9F" opacity="1.000000" stroke="none" 
	d="
M29.890808,43.046581 
	C32.116917,42.526958 34.343025,42.007336 36.815453,41.195213 
	C40.702328,45.026165 44.342888,49.149620 47.656006,53.632362 
	C45.274620,54.318550 43.220673,54.645451 41.012299,54.663761 
	C37.202183,50.585640 33.546497,46.816113 29.890808,43.046581 
z"/>
<path fill="#867FB2" opacity="1.000000" stroke="none" 
	d="
M68.145233,64.976166 
	C70.520187,60.414787 72.895142,55.853405 75.918518,51.271332 
	C78.391632,51.881165 80.216324,52.511684 82.022606,53.493683 
	C79.713692,57.584785 77.423203,61.324413 74.693771,65.049240 
	C72.218300,65.015022 70.181770,64.995598 68.145233,64.976166 
z"/>
<path fill="#9791C7" opacity="1.000000" stroke="none" 
	d="
M67.963989,65.306015 
	C70.181770,64.995598 72.218300,65.015022 74.637672,65.425652 
	C73.629715,69.869972 72.238930,73.923080 70.428047,77.984497 
	C68.056160,77.986679 66.104370,77.980568 64.152580,77.974457 
	C65.362640,73.861595 66.572701,69.748726 67.963989,65.306015 
z"/>
<path fill="#867FB2" opacity="1.000000" stroke="none" 
	d="
M41.166729,54.972351 
	C43.220673,54.645451 45.274620,54.318550 47.729862,53.984268 
	C50.091614,57.728951 52.052071,61.481018 53.638313,65.614578 
	C51.224823,65.987396 49.185547,65.978722 46.987228,65.651810 
	C44.941036,61.879837 43.053883,58.426094 41.166729,54.972351 
z"/>
<path fill="#9791C7" opacity="1.000000" stroke="none" 
	d="
M47.146271,65.970039 
	C49.185547,65.978722 51.224823,65.987396 53.705505,65.988472 
	C55.399094,69.390259 56.651276,72.799660 57.462997,76.602287 
	C55.062462,76.989662 53.102383,76.983803 50.963844,76.642227 
	C49.572346,72.861023 48.359306,69.415527 47.146271,65.970039 
z"/>
<path fill="#A39DD5" opacity="1.000000" stroke="none" 
	d="
M51.142303,76.977943 
	C53.102383,76.983803 55.062462,76.989662 57.439754,76.986053 
	C58.366959,80.763992 57.947918,84.265442 54.437275,86.986374 
	C51.542381,86.531013 49.004967,86.014610 46.419319,84.921600 
	C49.997776,83.208099 51.243259,80.529030 51.142303,76.977943 
z"/>
<path fill="#756F9F" opacity="1.000000" stroke="none" 
	d="
M82.041023,53.142204 
	C80.216324,52.511684 78.391632,51.881165 76.215164,51.098442 
	C77.685829,48.691570 79.508255,46.436901 81.641289,44.053539 
	C84.146011,44.449436 86.340126,44.974026 88.623291,46.103798 
	C86.488571,48.853390 84.264801,50.997795 82.041023,53.142204 
z"/>
<path fill="#A39DD5" opacity="1.000000" stroke="none" 
	d="
M64.089577,78.371307 
	C66.104370,77.980568 68.056160,77.986679 70.493240,78.347839 
	C72.021606,80.457130 73.064667,82.211380 74.107727,83.965630 
	C71.885345,84.478867 69.662964,84.992104 67.193527,85.798347 
	C65.973175,83.650299 64.999878,81.209229 64.089577,78.371307 
z"/>
<path fill="#9791C7" opacity="1.000000" stroke="none" 
	d="
M16.966465,81.080872 
	C11.075883,78.209251 9.652995,75.530640 11.010490,68.218933 
	C13.787353,67.981133 15.810650,67.974457 17.889694,68.334000 
	C16.334146,71.482513 17.430351,73.483208 19.727962,75.239189 
	C21.225859,76.383965 22.602900,77.686890 23.781473,79.211525 
	C21.341400,80.029678 19.153933,80.555275 16.966465,81.080872 
z"/>
<path fill="#756F9F" opacity="1.000000" stroke="none" 
	d="
M3.938671,43.406651 
	C5.726649,42.788307 7.557708,42.528778 10.074162,42.260551 
	C14.668350,46.343353 15.555575,50.888481 12.404208,55.982498 
	C10.051447,55.981663 8.114678,55.975807 6.177910,55.969948 
	C6.602142,53.874611 7.026374,51.779278 7.482210,49.527847 
	C6.453572,47.834526 5.217661,45.799995 3.938671,43.406651 
z"/>
<path fill="#867FB2" opacity="1.000000" stroke="none" 
	d="
M6.114966,56.339687 
	C8.114678,55.975807 10.051447,55.981663 12.573000,56.290672 
	C14.204884,57.996803 15.617392,59.261757 16.211899,60.835686 
	C17.065268,63.094944 17.322327,65.579437 17.833946,67.967789 
	C15.810650,67.974457 13.787353,67.981133 11.327253,67.980370 
	C9.277641,64.218430 7.664832,60.463924 6.114966,56.339687 
z"/>
<path fill="#A39DD5" opacity="1.000000" stroke="none" 
	d="
M17.102306,81.374069 
	C19.153933,80.555275 21.341400,80.029678 24.080273,79.357117 
	C26.189404,80.921394 27.747128,82.632637 29.304853,84.343880 
	C26.810667,84.899994 24.316483,85.456116 21.359554,86.024132 
	C19.677256,84.579773 18.457701,83.123520 17.102306,81.374069 
z"/>
<path fill="#756F9F" opacity="1.000000" stroke="none" 
	d="
M111.175453,42.978504 
	C113.241608,43.230000 115.307770,43.481491 117.730980,43.892303 
	C116.095016,47.854664 115.005287,51.819099 115.441879,56.562393 
	C112.939781,56.981979 110.923386,56.982201 108.959183,56.594677 
	C107.374252,51.411625 106.449738,46.732895 111.175453,42.978504 
z"/>
<path fill="#867FB2" opacity="1.000000" stroke="none" 
	d="
M108.906990,56.982422 
	C110.923386,56.982201 112.939781,56.981979 115.385162,56.974991 
	C114.924515,58.835567 113.816330,60.634438 113.204102,62.588684 
	C112.534828,64.724983 112.324272,67.005005 111.436493,69.600586 
	C108.944450,69.997444 106.929718,70.016106 104.626648,69.827225 
	C103.206123,66.574448 103.001953,63.666817 105.427193,61.051929 
	C106.639908,59.744385 107.750313,58.341942 108.906990,56.982422 
z"/>
<path fill="#A39DD5" opacity="1.000000" stroke="none" 
	d="
M100.391045,87.015259 
	C97.759209,86.346664 95.473145,85.610771 93.413925,84.343094 
	C96.740898,80.832275 99.841019,77.853256 103.189194,75.176880 
	C105.644722,76.027939 107.852196,76.576363 110.059669,77.124786 
	C106.952049,80.399178 103.844429,83.673569 100.391045,87.015259 
z"/>
<path fill="#9791C7" opacity="1.000000" stroke="none" 
	d="
M110.358299,76.894852 
	C107.852196,76.576363 105.644722,76.027939 103.355980,74.880196 
	C103.821465,72.865494 104.368217,71.450127 104.914978,70.034760 
	C106.929718,70.016106 108.944450,69.997444 111.386856,69.969025 
	C111.428650,72.194481 111.042793,74.429695 110.358299,76.894852 
z"/>
<path fill="#FFFFFF" opacity="1.000000" stroke="none" 
	d="
M104.626640,69.827225 
	C104.368217,71.450127 103.821465,72.865494 103.107925,74.577553 
	C99.841019,77.853256 96.740898,80.832275 93.327774,83.980576 
	C86.984795,84.121819 80.954811,84.093773 74.516281,84.015678 
	C73.064667,82.211380 72.021606,80.457130 70.913345,78.339539 
	C72.238930,73.923080 73.629715,69.869972 75.076607,65.440445 
	C77.423203,61.324413 79.713692,57.584785 82.022606,53.493683 
	C84.264801,50.997795 86.488571,48.853390 88.866074,46.405899 
	C95.557823,40.880573 102.242920,36.028400 112.002296,37.204094 
	C111.787521,38.908424 111.579842,40.556507 111.273804,42.591545 
	C106.449738,46.732895 107.374252,51.411625 108.959183,56.594677 
	C107.750313,58.341942 106.639908,59.744385 105.427193,61.051929 
	C103.001953,63.666817 103.206123,66.574448 104.626640,69.827225 
z"/>
<path fill="#FFFFFF" opacity="1.000000" stroke="none" 
	d="
M29.742828,84.441116 
	C27.747128,82.632637 26.189404,80.921394 24.332878,79.064560 
	C22.602900,77.686890 21.225859,76.383965 19.727962,75.239189 
	C17.430351,73.483208 16.334146,71.482513 17.889694,68.333992 
	C17.322327,65.579437 17.065268,63.094944 16.211899,60.835686 
	C15.617392,59.261757 14.204884,57.996803 12.988993,56.285652 
	C15.555575,50.888481 14.668350,46.343353 10.442287,42.112808 
	C10.125020,40.506210 10.125020,39.038666 10.125020,37.434784 
	C17.597246,35.497631 23.265482,39.720264 29.576275,42.889503 
	C33.546497,46.816113 37.202183,50.585640 41.012299,54.663761 
	C43.053883,58.426094 44.941036,61.879837 46.987228,65.651810 
	C48.359306,69.415527 49.572346,72.861023 50.963844,76.642227 
	C51.243259,80.529030 49.997776,83.208099 46.170250,84.624931 
	C40.706551,84.782707 35.443676,84.660538 29.742828,84.441116 
z"/>
</svg>