<svg width="24" height="24" viewBox="0 0 24 24" fill="none" xmlns="http://www.w3.org/2000/svg">
<g clip-path="url(#clip0_1249_925)">
<path d="M3 7.99997C3 7.20432 3.31607 6.44126 3.87868 5.87865C4.44129 5.31604 5.20435 4.99997 6 4.99997H18C18.7956 4.99997 19.5587 5.31604 20.1213 5.87865C20.6839 6.44126 21 7.20432 21 7.99997V16C21 16.7956 20.6839 17.5587 20.1213 18.1213C19.5587 18.6839 18.7956 19 18 19H6C5.20435 19 4.44129 18.6839 3.87868 18.1213C3.31607 17.5587 3 16.7956 3 16V7.99997Z" stroke="white" stroke-width="1.5" stroke-linecap="round" stroke-linejoin="round"/>
<path d="M7 16L10 13L13 16" stroke="white" stroke-width="1.5" stroke-linecap="round" stroke-linejoin="round"/>
<path d="M8 13.0002C7.211 13.0002 6 12.3282 6 11.5002C6 10.6722 6.711 10.0002 7.5 10.0002C8.628 9.98025 9.577 11.1702 10 13.0002C10.423 11.1702 11.372 9.98025 12.5 10.0002C13.289 10.0002 14 10.6722 14 11.5002C14 12.3282 12.789 13.0002 12 13.0002H8Z" stroke="white" stroke-width="1.5" stroke-linecap="round" stroke-linejoin="round"/>
</g>
<defs>
<clipPath id="clip0_1249_925">
<rect width="24" height="24" fill="white"/>
</clipPath>
</defs>
</svg>
