<svg width="25" height="24" viewBox="0 0 25 24" fill="none" xmlns="http://www.w3.org/2000/svg">
<g clip-path="url(#clip0_1060_14599)">
<path d="M17.3548 3.843L20.9568 7.445C21.224 7.71216 21.436 8.02933 21.5806 8.37842C21.7252 8.7275 21.7996 9.10165 21.7996 9.4795C21.7996 9.85735 21.7252 10.2315 21.5806 10.5806C21.436 10.9297 21.224 11.2468 20.9568 11.514L18.3138 14.157C18.0466 14.4242 17.7295 14.6362 17.3804 14.7808C17.0313 14.9254 16.6572 14.9998 16.2793 14.9998C15.9015 14.9998 15.5273 14.9254 15.1782 14.7808C14.8291 14.6362 14.512 14.4242 14.2448 14.157L13.9438 13.856L7.3858 20.414C7.05353 20.7462 6.61488 20.9509 6.1468 20.992L5.9718 21H4.7998C4.55487 21 4.31847 20.91 4.13543 20.7473C3.9524 20.5845 3.83546 20.3602 3.8068 20.117L3.7998 20V18.828C3.79992 18.3584 3.96524 17.9039 4.2668 17.544L4.3858 17.414L4.7998 17H6.7998V15H8.7998V13L10.9438 10.856L10.6428 10.555C10.3756 10.2878 10.1636 9.97066 10.019 9.62158C9.87443 9.2725 9.8 8.89835 9.8 8.5205C9.8 8.14265 9.87443 7.7685 10.019 7.41942C10.1636 7.07034 10.3756 6.75316 10.6428 6.486L13.2858 3.843C13.553 3.5758 13.8701 3.36384 14.2192 3.21923C14.5683 3.07462 14.9425 3.00019 15.3203 3.00019C15.6982 3.00019 16.0723 3.07462 16.4214 3.21923C16.7705 3.36384 17.0876 3.5758 17.3548 3.843Z" stroke="#A39BD6" stroke-width="1.5" stroke-linecap="round" stroke-linejoin="round"/>
<path d="M15.7998 9H15.8098" stroke="#A39BD6" stroke-width="1.5" stroke-linecap="round" stroke-linejoin="round"/>
</g>
<defs>
<clipPath id="clip0_1060_14599">
<rect width="24" height="24" fill="white" transform="translate(0.799805)"/>
</clipPath>
</defs>
</svg>
