<svg width="25" height="24" viewBox="0 0 25 24" fill="none" xmlns="http://www.w3.org/2000/svg">
<g clip-path="url(#clip0_719_5961)">
<path d="M6.63208 8H17.9711C18.2594 7.99997 18.5444 8.06229 18.8064 8.1827C19.0685 8.30311 19.3013 8.47876 19.4891 8.6976C19.6769 8.91645 19.8152 9.17331 19.8944 9.45059C19.9736 9.72786 19.9919 10.019 19.9481 10.304L18.6931 18.456C18.5841 19.1644 18.2251 19.8105 17.6811 20.2771C17.137 20.7438 16.4438 21.0002 15.7271 21H8.87508C8.15847 21 7.46556 20.7434 6.9217 20.2768C6.37785 19.8102 6.019 19.1643 5.91008 18.456L4.65508 10.304C4.61124 10.019 4.62956 9.72786 4.70878 9.45059C4.788 9.17331 4.92624 8.91645 5.11402 8.6976C5.3018 8.47876 5.53469 8.30311 5.79672 8.1827C6.05874 8.06229 6.34371 7.99997 6.63208 8Z" stroke="#A39BD6" stroke-width="1.5" stroke-linecap="round" stroke-linejoin="round"/>
<path d="M9.2998 10.9999V5.9999C9.2998 5.20425 9.61587 4.44119 10.1785 3.87858C10.7411 3.31597 11.5042 2.9999 12.2998 2.9999C13.0955 2.9999 13.8585 3.31597 14.4211 3.87858C14.9837 4.44119 15.2998 5.20425 15.2998 5.9999V10.9999" stroke="#A39BD6" stroke-width="1.5" stroke-linecap="round" stroke-linejoin="round"/>
</g>
<defs>
<clipPath id="clip0_719_5961">
<rect width="24" height="24" fill="white" transform="translate(0.299805)"/>
</clipPath>
</defs>
</svg>
