<svg width="25" height="24" viewBox="0 0 25 24" fill="none" xmlns="http://www.w3.org/2000/svg">
<g clip-path="url(#clip0_719_5946)">
<path d="M19.2993 18.0002C20.2276 18.0002 21.1178 17.6314 21.7742 16.9751C22.4306 16.3187 22.7993 15.4285 22.7993 14.5002C22.7993 13.5719 22.4306 12.6817 21.7742 12.0253C21.1178 11.3689 20.2276 11.0002 19.2993 11.0002H18.2993C18.4452 10.3502 18.4474 9.68061 18.3058 9.02979C18.1643 8.37898 17.8816 7.75963 17.4741 7.20712C17.0665 6.65461 16.542 6.17976 15.9306 5.80968C15.3191 5.43959 14.6327 5.18152 13.9104 5.0502C13.1881 4.91887 12.4442 4.91687 11.7211 5.04431C10.998 5.17174 10.3098 5.42612 9.69589 5.79291C8.45607 6.53368 7.59399 7.68737 7.29931 9.0002C6.23326 8.95749 5.18485 9.2706 4.33358 9.88589C3.48231 10.5012 2.88113 11.3804 2.63298 12.373C2.38483 13.3656 2.50514 14.4099 2.97331 15.327C3.44148 16.2441 4.22839 16.977 5.19931 17.4002" stroke="#A39BD6" stroke-width="1.5" stroke-linecap="round" stroke-linejoin="round"/>
<path d="M12.2998 13V22" stroke="#A39BD6" stroke-width="1.5" stroke-linecap="round" stroke-linejoin="round"/>
<path d="M9.2998 19L12.2998 22L15.2998 19" stroke="#A39BD6" stroke-width="1.5" stroke-linecap="round" stroke-linejoin="round"/>
</g>
<defs>
<clipPath id="clip0_719_5946">
<rect width="24" height="24" fill="white" transform="translate(0.299805)"/>
</clipPath>
</defs>
</svg>
